<svg width="161" height="19" viewBox="0 0 161 19" fill="none" xmlns="http://www.w3.org/2000/svg">
<path d="M9.24494 0.255066L11.8641 5.89498L18.0374 6.64316L13.4829 10.877L14.679 16.9793L9.24494 13.9561L3.8109 16.9793L5.00697 10.877L0.452479 6.64316L6.62573 5.89498L9.24494 0.255066Z" fill="#FFC633"/>
<path d="M33.0469 0.255013L35.6661 5.89492L41.8394 6.64311L37.2849 10.8769L38.481 16.9793L33.0469 13.956L27.6129 16.9793L28.809 10.8769L24.2545 6.64311L30.4277 5.89492L33.0469 0.255013Z" fill="#FFC633"/>
<path d="M56.8487 0.255013L59.4679 5.89492L65.6412 6.64311L61.0867 10.8769L62.2827 16.9793L56.8487 13.956L51.4147 16.9793L52.6107 10.8769L48.0562 6.64311L54.2295 5.89492L56.8487 0.255013Z" fill="#FFC633"/>
<path d="M80.6507 0.255013L83.2699 5.89492L89.4432 6.64311L84.8887 10.8769L86.0847 16.9793L80.6507 13.956L75.2167 16.9793L76.4127 10.8769L71.8582 6.64311L78.0315 5.89492L80.6507 0.255013Z" fill="#FFC633"/>
<path d="M104.452 0.255066L107.072 5.89498L113.245 6.64316L108.69 10.877L109.886 16.9793L104.452 13.9561L99.0184 16.9793L100.214 10.877L95.66 6.64316L101.833 5.89498L104.452 0.255066Z" fill="#FFC633"/>
<path d="M130.758 15.168C128.742 15.168 127.454 13.908 127.454 11.934H128.462C128.462 13.376 129.344 14.244 130.772 14.244C132.284 14.244 133.264 13.236 133.264 11.752C133.264 10.352 132.354 9.246 130.772 9.246C129.848 9.246 129.008 9.666 128.462 10.268L127.664 10.016L128.868 4.976H133.712V5.9H129.596L128.84 9.05C129.4 8.602 130.128 8.35 130.912 8.35C132.998 8.35 134.286 9.848 134.286 11.724C134.286 13.74 132.858 15.168 130.758 15.168ZM136.694 15.154C136.218 15.154 135.812 14.762 135.812 14.3C135.812 13.824 136.218 13.418 136.694 13.418C137.17 13.418 137.576 13.824 137.576 14.3C137.576 14.762 137.17 15.154 136.694 15.154ZM138.651 9.988C138.651 6.88 140.177 4.78 142.669 4.78C145.147 4.78 146.673 6.88 146.673 9.988C146.673 13.11 145.175 15.182 142.669 15.182C140.149 15.182 138.651 13.11 138.651 9.988ZM139.645 9.988C139.645 12.592 140.751 14.272 142.669 14.272C144.587 14.272 145.693 12.592 145.693 9.988C145.693 7.37 144.587 5.704 142.669 5.704C140.751 5.704 139.645 7.37 139.645 9.988ZM148.39 15H147.438L151.344 4.976H152.324L148.39 15Z" fill="black"/>
<path d="M156.379 15.168C154.363 15.168 153.075 13.908 153.075 11.934H154.083C154.083 13.376 154.965 14.244 156.393 14.244C157.905 14.244 158.885 13.236 158.885 11.752C158.885 10.352 157.975 9.246 156.393 9.246C155.469 9.246 154.629 9.666 154.083 10.268L153.285 10.016L154.489 4.976H159.333V5.9H155.217L154.461 9.05C155.021 8.602 155.749 8.35 156.533 8.35C158.619 8.35 159.907 9.848 159.907 11.724C159.907 13.74 158.479 15.168 156.379 15.168Z" fill="black" fill-opacity="0.6"/>
</svg>
