<svg width="143" height="37" viewBox="0 0 143 37" fill="none" xmlns="http://www.w3.org/2000/svg">
<circle cx="18.5" cy="18.5" r="18.5" fill="#4F4631"/>
<path d="M24.5306 15.0306L16.5306 23.0306C16.461 23.1005 16.3782 23.156 16.287 23.1938C16.1958 23.2317 16.0981 23.2512 15.9994 23.2512C15.9007 23.2512 15.8029 23.2317 15.7118 23.1938C15.6206 23.156 15.5378 23.1005 15.4681 23.0306L11.9681 19.5306C11.8984 19.4608 11.843 19.378 11.8053 19.2868C11.7675 19.1957 11.7481 19.098 11.7481 18.9993C11.7481 18.9007 11.7675 18.803 11.8053 18.7118C11.843 18.6207 11.8984 18.5378 11.9681 18.4681C12.0379 18.3983 12.1207 18.343 12.2119 18.3052C12.303 18.2675 12.4007 18.248 12.4994 18.248C12.598 18.248 12.6957 18.2675 12.7869 18.3052C12.878 18.343 12.9609 18.3983 13.0306 18.4681L16 21.4374L23.4694 13.9693C23.6103 13.8284 23.8014 13.7493 24.0006 13.7493C24.1999 13.7493 24.391 13.8284 24.5319 13.9693C24.6728 14.1102 24.7519 14.3013 24.7519 14.5006C24.7519 14.6998 24.6728 14.8909 24.5319 15.0318L24.5306 15.0306Z" fill="white"/>
<circle cx="71.5" cy="18.5" r="18.5" fill="#314F4A"/>
<circle cx="124.5" cy="18.5" r="18.5" fill="#31344F"/>
</svg>
