<svg width="1240" height="48" viewBox="0 0 1240 48" fill="none" xmlns="http://www.w3.org/2000/svg">
<path d="M11.6 35.7467C3.86667 35.72 0.213333 33.32 0.4 27.5067H7.04C7.12 29.0267 8.4 29.96 11.6 29.9867C14.4267 30.0133 15.7333 29.2133 15.7333 28.1733C15.7333 27.4533 15.3333 26.7067 13.1467 26.3867L10.2667 25.9333C6.02667 25.24 0.933333 24.7333 0.933333 19C0.933333 14.5733 4.53333 11.8533 11.6533 11.8533C18.08 11.8533 22.56 13.64 22.4267 20.04H15.84C15.5733 18.5467 14.32 17.6133 11.4933 17.6133C9.04 17.6133 8.02667 18.36 8.02667 19.3733C8.02667 20.0133 8.42667 20.7867 10.1333 21.0533L12.5067 21.4533C16.96 22.2 23.0667 22.3333 23.0667 28.4667C23.0667 33.3467 19.28 35.7733 11.6 35.7467ZM40.5446 12.6H47.9313V35H40.5446V26.8933H31.8513V35H24.4646V12.6H31.8513V20.7067H40.5446V12.6ZM62.1017 35.7467C54.395 35.7467 49.4083 30.9733 49.4083 23.8C49.4083 16.6267 54.395 11.8533 62.1017 11.8533C69.8083 11.8533 74.795 16.6267 74.795 23.8C74.795 30.9733 69.8083 35.7467 62.1017 35.7467ZM62.1017 29.3733C65.035 29.3733 67.4617 27.3467 67.4617 23.8C67.4617 20.2533 65.035 18.2267 62.1017 18.2267C59.1683 18.2267 56.7417 20.2533 56.7417 23.8C56.7417 27.3467 59.1683 29.3733 62.1017 29.3733ZM76.2771 35V12.6H88.9971C95.1038 12.6 98.7304 15.32 98.7304 21.3467C98.7304 27.3733 95.1038 30.0933 89.0238 30.0933H83.6638V35H76.2771ZM83.6638 23.96H88.3571C90.1438 23.96 91.2904 23.08 91.2904 21.3467C91.2904 19.6133 90.1438 18.7333 88.3837 18.7333H83.6638V23.96ZM102.426 35.4267C100.426 35.4267 98.7458 33.7733 98.7458 31.8C98.7458 29.8267 100.426 28.1733 102.426 28.1733C104.426 28.1733 106.106 29.8267 106.106 31.8C106.106 33.7733 104.426 35.4267 102.426 35.4267ZM120.151 35.7467C112.605 35.7467 107.565 30.9733 107.565 23.8C107.565 16.6267 112.605 11.8533 120.151 11.8533C125.618 11.8533 131.218 14.2533 131.965 21.8267H124.925C124.311 19.3733 122.578 18.2267 120.151 18.2267C117.218 18.2267 114.898 20.4133 114.898 23.8C114.898 27.1867 117.218 29.3733 120.151 29.3733C122.578 29.3733 124.311 28.2267 124.925 25.72H131.965C131.218 33.3467 125.671 35.7467 120.151 35.7467ZM146.008 35.7467C138.301 35.7467 133.315 30.9733 133.315 23.8C133.315 16.6267 138.301 11.8533 146.008 11.8533C153.715 11.8533 158.701 16.6267 158.701 23.8C158.701 30.9733 153.715 35.7467 146.008 35.7467ZM146.008 29.3733C148.941 29.3733 151.368 27.3467 151.368 23.8C151.368 20.2533 148.941 18.2267 146.008 18.2267C143.075 18.2267 140.648 20.2533 140.648 23.8C140.648 27.3467 143.075 29.3733 146.008 29.3733Z" fill="black"/>
<path d="M200.704 21.52C200.704 19.6 202.24 18.336 204.544 18.336C206.608 18.336 207.968 19.488 208.144 21.408H206.976C206.848 20.112 205.968 19.376 204.528 19.376C202.912 19.376 201.856 20.208 201.856 21.504C201.856 22.512 202.448 23.152 203.648 23.456L205.616 23.936C207.408 24.368 208.336 25.392 208.336 26.944C208.336 28.928 206.8 30.192 204.432 30.192C202.208 30.192 200.704 29.024 200.56 27.152H201.744C201.808 28.352 202.864 29.136 204.432 29.136C206.112 29.136 207.184 28.32 207.184 27.008C207.184 25.984 206.608 25.312 205.376 25.024L203.44 24.544C201.648 24.112 200.704 23.088 200.704 21.52ZM211.272 29.984H210.168V18.336H211.272V23.6C211.768 22.672 212.712 22.048 214.008 22.048C216.04 22.048 216.952 23.312 216.952 25.264V30H215.848V25.504C215.848 23.696 215 23.056 213.8 23.056C212.136 23.056 211.272 24.288 211.272 25.776V29.984ZM218.608 26.128C218.608 23.76 220.272 22.048 222.544 22.048C224.816 22.048 226.48 23.76 226.48 26.128C226.48 28.48 224.816 30.192 222.544 30.192C220.272 30.192 218.608 28.48 218.608 26.128ZM219.728 26.112C219.728 27.936 220.88 29.2 222.544 29.2C224.192 29.2 225.36 27.936 225.36 26.112C225.36 24.32 224.192 23.04 222.544 23.04C220.88 23.04 219.728 24.32 219.728 26.112ZM228.246 33.376V22.256H229.206L229.318 23.824C229.862 22.624 230.95 22.048 232.246 22.048C234.486 22.048 235.83 23.76 235.83 26.096C235.83 28.432 234.534 30.192 232.246 30.192C230.934 30.192 229.894 29.632 229.35 28.512V33.376H228.246ZM229.366 26.128C229.366 27.904 230.358 29.2 232.054 29.2C233.734 29.2 234.71 27.904 234.71 26.128C234.71 24.336 233.734 23.056 232.054 23.056C230.358 23.056 229.366 24.336 229.366 26.128Z" fill="black"/>
<path d="M254.531 22.5307L249.531 27.5307C249.461 27.6007 249.378 27.6561 249.287 27.694C249.196 27.7318 249.098 27.7513 248.999 27.7513C248.901 27.7513 248.803 27.7318 248.712 27.694C248.621 27.6561 248.538 27.6007 248.468 27.5307L243.468 22.5307C243.327 22.3898 243.248 22.1987 243.248 21.9995C243.248 21.8002 243.327 21.6091 243.468 21.4682C243.609 21.3273 243.8 21.2482 243.999 21.2482C244.199 21.2482 244.39 21.3273 244.531 21.4682L249 25.9376L253.469 21.4676C253.61 21.3267 253.801 21.2476 254.001 21.2476C254.2 21.2476 254.391 21.3267 254.532 21.4676C254.673 21.6085 254.752 21.7996 254.752 21.9989C254.752 22.1981 254.673 22.3892 254.532 22.5301L254.531 22.5307Z" fill="black"/>
<path d="M292.6 24.272C292.6 27.744 290.344 30.192 287.144 30.192C283.928 30.192 281.688 27.744 281.688 24.272C281.688 20.8 283.944 18.336 287.144 18.336C290.36 18.336 292.6 20.784 292.6 24.272ZM291.416 24.272C291.416 21.408 289.672 19.456 287.144 19.456C284.616 19.456 282.888 21.408 282.888 24.272C282.888 27.136 284.616 29.088 287.144 29.088C289.672 29.088 291.416 27.12 291.416 24.272ZM295.553 30H294.449V22.256H295.409L295.569 23.6C296.081 22.608 297.105 22.048 298.225 22.048C300.353 22.048 301.233 23.312 301.233 25.264V30H300.129V25.504C300.129 23.696 299.313 23.056 298.033 23.056C296.449 23.056 295.553 24.208 295.553 25.952V30ZM307.423 21.52C307.423 19.6 308.959 18.336 311.263 18.336C313.327 18.336 314.687 19.488 314.863 21.408H313.695C313.567 20.112 312.687 19.376 311.247 19.376C309.631 19.376 308.575 20.208 308.575 21.504C308.575 22.512 309.167 23.152 310.367 23.456L312.335 23.936C314.127 24.368 315.055 25.392 315.055 26.944C315.055 28.928 313.519 30.192 311.151 30.192C308.927 30.192 307.423 29.024 307.279 27.152H308.463C308.527 28.352 309.583 29.136 311.151 29.136C312.831 29.136 313.903 28.32 313.903 27.008C313.903 25.984 313.327 25.312 312.095 25.024L310.159 24.544C308.367 24.112 307.423 23.088 307.423 21.52ZM319.11 30.192C317.462 30.192 316.486 29.264 316.486 27.904C316.486 26.48 317.574 25.584 319.382 25.44L321.942 25.232V24.976C321.942 23.456 321.03 22.976 319.894 22.976C318.55 22.976 317.75 23.584 317.75 24.624H316.742C316.742 23.056 318.022 22.048 319.926 22.048C321.718 22.048 323.03 22.944 323.03 24.992V30H322.102L321.958 28.64C321.478 29.616 320.422 30.192 319.11 30.192ZM319.366 29.296C320.998 29.296 321.942 28.16 321.942 26.48V26.064L319.654 26.24C318.198 26.368 317.606 27.008 317.606 27.872C317.606 28.816 318.31 29.296 319.366 29.296ZM326.398 30H325.294V18.336H326.398V30ZM331.994 30.192C329.722 30.192 328.202 28.56 328.202 26.128C328.202 23.712 329.706 22.048 331.914 22.048C334.01 22.048 335.434 23.536 335.434 25.728V26.272H329.274C329.354 28.16 330.346 29.248 332.01 29.248C333.274 29.248 334.09 28.704 334.378 27.68H335.434C335.018 29.312 333.818 30.192 331.994 30.192ZM331.914 22.992C330.458 22.992 329.498 23.952 329.306 25.472H334.33C334.33 23.984 333.37 22.992 331.914 22.992Z" fill="black"/>
<path d="M363.544 30H362.392V18.544H363.56L369.864 28.08V18.544H371V30H369.864L363.544 20.464V30ZM376.806 30.192C374.534 30.192 373.014 28.56 373.014 26.128C373.014 23.712 374.518 22.048 376.726 22.048C378.822 22.048 380.246 23.536 380.246 25.728V26.272H374.086C374.166 28.16 375.158 29.248 376.822 29.248C378.086 29.248 378.902 28.704 379.19 27.68H380.246C379.83 29.312 378.63 30.192 376.806 30.192ZM376.726 22.992C375.27 22.992 374.31 23.952 374.118 25.472H379.142C379.142 23.984 378.182 22.992 376.726 22.992ZM383.44 30L380.88 22.256H382.016L383.536 26.928C383.712 27.44 383.856 27.968 384.016 28.592C384.144 27.968 384.4 27.184 384.48 26.928L386.016 22.256H387.152L388.672 26.928C388.816 27.344 389.008 28.016 389.152 28.592C389.312 27.952 389.344 27.76 389.616 26.928L391.152 22.256H392.304L389.68 30H388.608L387.008 25.136C386.816 24.56 386.688 24.08 386.592 23.616C386.48 24.032 386.352 24.496 386.144 25.136L384.544 30H383.44ZM398.361 30H397.193L401.401 18.544H402.825L407.081 30H405.881L404.761 26.96H399.481L398.361 30ZM401.961 20.16L399.833 25.952H404.393L402.249 20.16C402.201 20 402.121 19.808 402.105 19.696C402.089 19.792 402.025 20 401.961 20.16ZM412.481 22.16V23.152H411.873C410.449 23.152 409.537 24.112 409.537 25.584V30H408.433V22.256H409.473L409.553 23.456C409.857 22.624 410.673 22.08 411.761 22.08C412.001 22.08 412.209 22.096 412.481 22.16ZM417.997 22.16V23.152H417.389C415.965 23.152 415.053 24.112 415.053 25.584V30H413.949V22.256H414.989L415.069 23.456C415.373 22.624 416.189 22.08 417.277 22.08C417.517 22.08 417.725 22.096 417.997 22.16ZM420.009 20.128C419.561 20.128 419.193 19.76 419.193 19.312C419.193 18.864 419.561 18.48 420.009 18.48C420.457 18.48 420.841 18.864 420.841 19.312C420.841 19.76 420.457 20.128 420.009 20.128ZM419.465 30V22.256H420.569V30H419.465ZM425.031 30L421.863 22.256H423.047L425.047 27.248C425.255 27.808 425.463 28.336 425.607 28.848C425.751 28.32 425.959 27.808 426.183 27.248L428.215 22.256H429.351L426.135 30H425.031ZM432.532 30.192C430.884 30.192 429.908 29.264 429.908 27.904C429.908 26.48 430.996 25.584 432.804 25.44L435.364 25.232V24.976C435.364 23.456 434.452 22.976 433.316 22.976C431.972 22.976 431.172 23.584 431.172 24.624H430.164C430.164 23.056 431.444 22.048 433.348 22.048C435.14 22.048 436.452 22.944 436.452 24.992V30H435.524L435.38 28.64C434.9 29.616 433.844 30.192 432.532 30.192ZM432.788 29.296C434.42 29.296 435.364 28.16 435.364 26.48V26.064L433.076 26.24C431.62 26.368 431.028 27.008 431.028 27.872C431.028 28.816 431.732 29.296 432.788 29.296ZM439.82 30H438.716V18.336H439.82V30ZM441.512 27.824H442.568C442.568 28.72 443.24 29.28 444.328 29.28C445.528 29.28 446.232 28.768 446.232 27.936C446.232 27.296 445.912 26.928 445 26.704L443.672 26.368C442.328 26.032 441.672 25.328 441.672 24.272C441.672 22.912 442.808 22.048 444.472 22.048C446.104 22.048 447.16 22.944 447.208 24.384H446.136C446.104 23.488 445.48 22.96 444.44 22.96C443.352 22.96 442.744 23.424 442.744 24.256C442.744 24.848 443.16 25.264 444.008 25.472L445.336 25.808C446.68 26.144 447.288 26.768 447.288 27.888C447.288 29.28 446.104 30.192 444.344 30.192C442.6 30.192 441.512 29.264 441.512 27.824Z" fill="black"/>
<path d="M473.392 30V18.544H477.584C479.792 18.544 481.152 19.664 481.152 21.504C481.152 22.848 480.56 23.76 479.376 24.224C480.704 24.656 481.376 25.584 481.376 26.992C481.376 28.832 480 30 477.824 30H473.392ZM477.568 19.568H474.544V23.76H477.712C479.152 23.76 479.968 22.96 479.968 21.6C479.968 20.32 479.104 19.568 477.568 19.568ZM477.824 24.768H474.544V28.96H477.824C479.328 28.96 480.208 28.176 480.208 26.848C480.208 25.552 479.312 24.768 477.824 24.768ZM487.263 22.16V23.152H486.655C485.231 23.152 484.319 24.112 484.319 25.584V30H483.215V22.256H484.255L484.335 23.456C484.639 22.624 485.455 22.08 486.543 22.08C486.783 22.08 486.991 22.096 487.263 22.16ZM490.642 30.192C488.994 30.192 488.018 29.264 488.018 27.904C488.018 26.48 489.106 25.584 490.914 25.44L493.474 25.232V24.976C493.474 23.456 492.562 22.976 491.426 22.976C490.082 22.976 489.282 23.584 489.282 24.624H488.274C488.274 23.056 489.554 22.048 491.458 22.048C493.25 22.048 494.562 22.944 494.562 24.992V30H493.634L493.49 28.64C493.01 29.616 491.954 30.192 490.642 30.192ZM490.898 29.296C492.53 29.296 493.474 28.16 493.474 26.48V26.064L491.186 26.24C489.73 26.368 489.138 27.008 489.138 27.872C489.138 28.816 489.842 29.296 490.898 29.296ZM497.881 30H496.777V22.256H497.737L497.897 23.6C498.409 22.608 499.433 22.048 500.553 22.048C502.681 22.048 503.561 23.312 503.561 25.264V30H502.457V25.504C502.457 23.696 501.641 23.056 500.361 23.056C498.777 23.056 497.881 24.208 497.881 25.952V30ZM508.801 30.192C506.545 30.192 505.217 28.464 505.217 26.144C505.217 23.808 506.545 22.048 508.849 22.048C510.129 22.048 511.153 22.608 511.697 23.728V18.336H512.801V30H511.841L511.729 28.416C511.185 29.616 510.097 30.192 508.801 30.192ZM508.993 29.184C510.689 29.184 511.681 27.904 511.681 26.112C511.681 24.336 510.689 23.04 508.993 23.04C507.313 23.04 506.337 24.336 506.337 26.112C506.337 27.904 507.313 29.184 508.993 29.184ZM514.449 27.824H515.505C515.505 28.72 516.177 29.28 517.265 29.28C518.465 29.28 519.169 28.768 519.169 27.936C519.169 27.296 518.849 26.928 517.937 26.704L516.609 26.368C515.265 26.032 514.609 25.328 514.609 24.272C514.609 22.912 515.745 22.048 517.409 22.048C519.041 22.048 520.097 22.944 520.145 24.384H519.073C519.041 23.488 518.417 22.96 517.377 22.96C516.289 22.96 515.681 23.424 515.681 24.256C515.681 24.848 516.097 25.264 516.945 25.472L518.273 25.808C519.617 26.144 520.225 26.768 520.225 27.888C520.225 29.28 519.041 30.192 517.281 30.192C515.537 30.192 514.449 29.264 514.449 27.824Z" fill="black"/>
<rect x="561" width="577" height="48" rx="24" fill="#F0F0F0"/>
<path d="M598.796 32.2042L594.344 27.7501C595.679 26.0106 596.302 23.8284 596.087 21.6462C595.872 19.464 594.835 17.4453 593.187 15.9995C591.538 14.5537 589.402 13.7891 587.21 13.8608C585.018 13.9326 582.936 14.8352 581.386 16.3857C579.835 17.9362 578.933 20.0184 578.861 22.21C578.789 24.4015 579.554 26.5383 580.999 28.1868C582.445 29.8354 584.464 30.8723 586.646 31.0871C588.828 31.302 591.011 30.6788 592.75 29.3439L597.206 33.8007C597.311 33.9054 597.435 33.9884 597.572 34.045C597.708 34.1017 597.855 34.1308 598.003 34.1308C598.151 34.1308 598.297 34.1017 598.434 34.045C598.571 33.9884 598.695 33.9054 598.8 33.8007C598.904 33.6961 598.987 33.5719 599.044 33.4351C599.101 33.2984 599.13 33.1519 599.13 33.0039C599.13 32.8559 599.101 32.7093 599.044 32.5726C598.987 32.4359 598.904 32.3116 598.8 32.207L598.796 32.2042ZM581.125 22.5001C581.125 21.2393 581.499 20.0067 582.199 18.9584C582.9 17.91 583.896 17.0929 585.061 16.6104C586.225 16.1279 587.507 16.0016 588.744 16.2476C589.98 16.4936 591.116 17.1008 592.008 17.9923C592.899 18.8839 593.507 20.0198 593.753 21.2564C593.999 22.493 593.872 23.7748 593.39 24.9397C592.907 26.1046 592.09 27.1002 591.042 27.8007C589.994 28.5012 588.761 28.8751 587.5 28.8751C585.81 28.8734 584.189 28.2012 582.994 27.006C581.799 25.8108 581.127 24.1903 581.125 22.5001Z" fill="black" fill-opacity="0.4"/>
<path d="M613.704 20.52C613.704 18.6 615.24 17.336 617.544 17.336C619.608 17.336 620.968 18.488 621.144 20.408H619.976C619.848 19.112 618.968 18.376 617.528 18.376C615.912 18.376 614.856 19.208 614.856 20.504C614.856 21.512 615.448 22.152 616.648 22.456L618.616 22.936C620.408 23.368 621.336 24.392 621.336 25.944C621.336 27.928 619.8 29.192 617.432 29.192C615.208 29.192 613.704 28.024 613.56 26.152H614.744C614.808 27.352 615.864 28.136 617.432 28.136C619.112 28.136 620.184 27.32 620.184 26.008C620.184 24.984 619.608 24.312 618.376 24.024L616.44 23.544C614.648 23.112 613.704 22.088 613.704 20.52ZM626.416 29.192C624.144 29.192 622.624 27.56 622.624 25.128C622.624 22.712 624.128 21.048 626.336 21.048C628.432 21.048 629.856 22.536 629.856 24.728V25.272H623.696C623.776 27.16 624.768 28.248 626.432 28.248C627.696 28.248 628.512 27.704 628.8 26.68H629.856C629.44 28.312 628.24 29.192 626.416 29.192ZM626.336 21.992C624.88 21.992 623.92 22.952 623.728 24.472H628.752C628.752 22.984 627.792 21.992 626.336 21.992ZM633.767 29.192C632.119 29.192 631.143 28.264 631.143 26.904C631.143 25.48 632.231 24.584 634.039 24.44L636.599 24.232V23.976C636.599 22.456 635.687 21.976 634.551 21.976C633.207 21.976 632.407 22.584 632.407 23.624H631.399C631.399 22.056 632.679 21.048 634.583 21.048C636.375 21.048 637.687 21.944 637.687 23.992V29H636.759L636.615 27.64C636.135 28.616 635.079 29.192 633.767 29.192ZM634.023 28.296C635.655 28.296 636.599 27.16 636.599 25.48V25.064L634.311 25.24C632.855 25.368 632.263 26.008 632.263 26.872C632.263 27.816 632.967 28.296 634.023 28.296ZM643.95 21.16V22.152H643.342C641.918 22.152 641.006 23.112 641.006 24.584V29H639.902V21.256H640.942L641.022 22.456C641.326 21.624 642.142 21.08 643.23 21.08C643.47 21.08 643.678 21.096 643.95 21.16ZM644.577 25.144C644.577 22.712 646.065 21.048 648.321 21.048C650.113 21.048 651.425 22.088 651.729 23.688H650.625C650.337 22.616 649.409 22.024 648.337 22.024C646.769 22.024 645.665 23.224 645.665 25.128C645.665 26.968 646.689 28.2 648.257 28.2C649.409 28.2 650.337 27.56 650.641 26.568H651.761C651.393 28.152 650.017 29.192 648.257 29.192C646.065 29.192 644.577 27.576 644.577 25.144ZM654.537 28.984H653.433V17.336H654.537V22.6C655.033 21.672 655.977 21.048 657.273 21.048C659.305 21.048 660.217 22.312 660.217 24.264V29H659.113V24.504C659.113 22.696 658.265 22.056 657.065 22.056C655.401 22.056 654.537 23.288 654.537 24.776V28.984ZM665.991 21.256H667.175V19.752C667.175 18.008 668.135 17.336 669.319 17.336C669.591 17.336 669.911 17.352 670.167 17.4V18.344H669.511C668.535 18.344 668.279 18.84 668.279 19.752V21.256H670.103V22.184H668.279V29H667.175V22.184H665.991V21.256ZM670.827 25.128C670.827 22.76 672.491 21.048 674.763 21.048C677.035 21.048 678.699 22.76 678.699 25.128C678.699 27.48 677.035 29.192 674.763 29.192C672.491 29.192 670.827 27.48 670.827 25.128ZM671.947 25.112C671.947 26.936 673.099 28.2 674.763 28.2C676.411 28.2 677.579 26.936 677.579 25.112C677.579 23.32 676.411 22.04 674.763 22.04C673.099 22.04 671.947 23.32 671.947 25.112ZM684.513 21.16V22.152H683.905C682.481 22.152 681.569 23.112 681.569 24.584V29H680.465V21.256H681.505L681.585 22.456C681.889 21.624 682.705 21.08 683.793 21.08C684.033 21.08 684.241 21.096 684.513 21.16ZM690.418 32.376V21.256H691.378L691.49 22.824C692.034 21.624 693.122 21.048 694.418 21.048C696.658 21.048 698.002 22.76 698.002 25.096C698.002 27.432 696.706 29.192 694.418 29.192C693.106 29.192 692.066 28.632 691.522 27.512V32.376H690.418ZM691.538 25.128C691.538 26.904 692.53 28.2 694.226 28.2C695.906 28.2 696.882 26.904 696.882 25.128C696.882 23.336 695.906 22.056 694.226 22.056C692.53 22.056 691.538 23.336 691.538 25.128ZM703.809 21.16V22.152H703.201C701.777 22.152 700.865 23.112 700.865 24.584V29H699.761V21.256H700.801L700.881 22.456C701.185 21.624 702.001 21.08 703.089 21.08C703.329 21.08 703.537 21.096 703.809 21.16ZM704.436 25.128C704.436 22.76 706.1 21.048 708.372 21.048C710.644 21.048 712.308 22.76 712.308 25.128C712.308 27.48 710.644 29.192 708.372 29.192C706.1 29.192 704.436 27.48 704.436 25.128ZM705.556 25.112C705.556 26.936 706.708 28.2 708.372 28.2C710.02 28.2 711.188 26.936 711.188 25.112C711.188 23.32 710.02 22.04 708.372 22.04C706.708 22.04 705.556 23.32 705.556 25.112ZM717.114 29.192C714.858 29.192 713.53 27.464 713.53 25.144C713.53 22.808 714.858 21.048 717.162 21.048C718.442 21.048 719.466 21.608 720.01 22.728V17.336H721.114V29H720.154L720.042 27.416C719.498 28.616 718.41 29.192 717.114 29.192ZM717.306 28.184C719.002 28.184 719.994 26.904 719.994 25.112C719.994 23.336 719.002 22.04 717.306 22.04C715.626 22.04 714.65 23.336 714.65 25.112C714.65 26.904 715.626 28.184 717.306 28.184ZM728.858 21.256H729.962V29H729.002L728.858 27.688C728.426 28.584 727.354 29.192 726.138 29.192C724.314 29.192 723.322 27.944 723.322 26.056V21.24H724.442V25.704C724.442 27.544 725.258 28.2 726.49 28.2C727.978 28.2 728.858 27.208 728.858 25.368V21.256ZM731.561 25.144C731.561 22.712 733.049 21.048 735.305 21.048C737.097 21.048 738.409 22.088 738.713 23.688H737.609C737.321 22.616 736.393 22.024 735.321 22.024C733.753 22.024 732.649 23.224 732.649 25.128C732.649 26.968 733.673 28.2 735.241 28.2C736.393 28.2 737.321 27.56 737.625 26.568H738.745C738.377 28.152 737.001 29.192 735.241 29.192C733.049 29.192 731.561 27.576 731.561 25.144ZM742.194 29H741.106V22.184H739.554V21.256H741.106V18.808H742.194V21.256H743.746V22.184H742.194V29ZM744.527 26.824H745.583C745.583 27.72 746.255 28.28 747.343 28.28C748.543 28.28 749.247 27.768 749.247 26.936C749.247 26.296 748.927 25.928 748.015 25.704L746.687 25.368C745.343 25.032 744.687 24.328 744.687 23.272C744.687 21.912 745.823 21.048 747.487 21.048C749.119 21.048 750.175 21.944 750.223 23.384H749.151C749.119 22.488 748.495 21.96 747.455 21.96C746.367 21.96 745.759 22.424 745.759 23.256C745.759 23.848 746.175 24.264 747.023 24.472L748.351 24.808C749.695 25.144 750.303 25.768 750.303 26.888C750.303 28.28 749.119 29.192 747.359 29.192C745.615 29.192 744.527 28.264 744.527 26.824ZM752.94 29.176C752.396 29.176 751.932 28.728 751.932 28.2C751.932 27.656 752.396 27.192 752.94 27.192C753.484 27.192 753.948 27.656 753.948 28.2C753.948 28.728 753.484 29.176 752.94 29.176ZM757.127 29.176C756.583 29.176 756.119 28.728 756.119 28.2C756.119 27.656 756.583 27.192 757.127 27.192C757.671 27.192 758.135 27.656 758.135 28.2C758.135 28.728 757.671 29.176 757.127 29.176ZM761.315 29.176C760.771 29.176 760.307 28.728 760.307 28.2C760.307 27.656 760.771 27.192 761.315 27.192C761.859 27.192 762.323 27.656 762.323 28.2C762.323 28.728 761.859 29.176 761.315 29.176Z" fill="black" fill-opacity="0.4"/>
<path d="M1187.37 32.25C1187.37 32.6208 1187.27 32.9834 1187.06 33.2917C1186.85 33.6 1186.56 33.8404 1186.22 33.9823C1185.87 34.1242 1185.5 34.1613 1185.13 34.089C1184.77 34.0166 1184.44 33.838 1184.17 33.5758C1183.91 33.3136 1183.73 32.9795 1183.66 32.6158C1183.59 32.2521 1183.63 31.8751 1183.77 31.5325C1183.91 31.1899 1184.15 30.897 1184.46 30.691C1184.77 30.485 1185.13 30.375 1185.5 30.375C1186 30.375 1186.47 30.5725 1186.83 30.9242C1187.18 31.2758 1187.37 31.7527 1187.37 32.25ZM1195.25 30.375C1194.88 30.375 1194.52 30.485 1194.21 30.691C1193.9 30.897 1193.66 31.1899 1193.52 31.5325C1193.38 31.8751 1193.34 32.2521 1193.41 32.6158C1193.48 32.9795 1193.66 33.3136 1193.92 33.5758C1194.19 33.838 1194.52 34.0166 1194.88 34.089C1195.25 34.1613 1195.62 34.1242 1195.97 33.9823C1196.31 33.8404 1196.6 33.6 1196.81 33.2917C1197.02 32.9834 1197.12 32.6208 1197.12 32.25C1197.12 31.7527 1196.93 31.2758 1196.58 30.9242C1196.22 30.5725 1195.75 30.375 1195.25 30.375ZM1200.08 19.0809L1197.52 27.3966C1197.35 27.9343 1197.02 28.4051 1196.57 28.739C1196.12 29.0729 1195.57 29.2521 1195.01 29.25H1185.77C1185.2 29.2482 1184.65 29.0616 1184.2 28.7183C1183.74 28.3751 1183.41 27.8936 1183.25 27.3459L1180.04 16.125H1179.12C1178.83 16.125 1178.54 16.0065 1178.33 15.7955C1178.12 15.5845 1178 15.2984 1178 15C1178 14.7016 1178.12 14.4155 1178.33 14.2045C1178.54 13.9935 1178.83 13.875 1179.12 13.875H1180.33C1180.73 13.8763 1181.13 14.0095 1181.45 14.2548C1181.78 14.5 1182.02 14.8441 1182.13 15.2353L1182.81 17.625H1199C1199.18 17.625 1199.35 17.6663 1199.51 17.7456C1199.66 17.8249 1199.8 17.94 1199.91 18.0816C1200.01 18.2233 1200.08 18.3875 1200.11 18.561C1200.14 18.7346 1200.13 18.9127 1200.08 19.0809ZM1197.48 19.875H1183.46L1185.41 26.7281C1185.44 26.8065 1185.48 26.8755 1185.55 26.9245C1185.61 26.9736 1185.69 27.0001 1185.77 27H1195.01C1195.09 27.0002 1195.17 26.9746 1195.23 26.927C1195.29 26.8794 1195.34 26.8123 1195.37 26.7356L1197.48 19.875Z" fill="black"/>
<path d="M1228 13.875C1226 13.875 1224.04 14.4688 1222.37 15.5814C1220.71 16.6939 1219.41 18.2752 1218.65 20.1253C1217.88 21.9754 1217.68 24.0112 1218.07 25.9753C1218.46 27.9393 1219.42 29.7435 1220.84 31.1595C1222.26 32.5755 1224.06 33.5398 1226.02 33.9305C1227.99 34.3211 1230.02 34.1206 1231.87 33.3543C1233.72 32.5879 1235.31 31.2902 1236.42 29.6251C1237.53 27.9601 1238.13 26.0025 1238.13 24C1238.12 21.3156 1237.05 18.742 1235.16 16.8438C1233.26 14.9457 1230.68 13.878 1228 13.875ZM1223.46 30.4284C1223.98 29.7143 1224.67 29.1335 1225.45 28.7331C1226.24 28.3327 1227.12 28.124 1228 28.124C1228.88 28.124 1229.76 28.3327 1230.55 28.7331C1231.33 29.1335 1232.02 29.7143 1232.54 30.4284C1231.21 31.3695 1229.63 31.875 1228 31.875C1226.37 31.875 1224.79 31.3695 1223.46 30.4284ZM1225.38 23.25C1225.38 22.7308 1225.53 22.2233 1225.82 21.7916C1226.11 21.3599 1226.52 21.0235 1227 20.8248C1227.48 20.6261 1228 20.5742 1228.51 20.6754C1229.02 20.7767 1229.49 21.0267 1229.86 21.3938C1230.22 21.761 1230.47 22.2287 1230.57 22.7379C1230.68 23.2471 1230.62 23.7749 1230.43 24.2545C1230.23 24.7342 1229.89 25.1442 1229.46 25.4326C1229.03 25.721 1228.52 25.875 1228 25.875C1227.3 25.875 1226.64 25.5984 1226.14 25.1062C1225.65 24.6139 1225.38 23.9462 1225.38 23.25ZM1234.19 28.8694C1233.46 27.9419 1232.53 27.1914 1231.47 26.6738C1232.14 25.9896 1232.6 25.1208 1232.79 24.1769C1232.97 23.2329 1232.87 22.2558 1232.5 21.3686C1232.13 20.4814 1231.5 19.7236 1230.7 19.1907C1229.9 18.6577 1228.96 18.3733 1228 18.3733C1227.04 18.3733 1226.1 18.6577 1225.3 19.1907C1224.5 19.7236 1223.87 20.4814 1223.5 21.3686C1223.13 22.2558 1223.03 23.2329 1223.21 24.1769C1223.4 25.1208 1223.86 25.9896 1224.53 26.6738C1223.47 27.1914 1222.54 27.9419 1221.81 28.8694C1220.9 27.7083 1220.33 26.3129 1220.17 24.8427C1220.01 23.3725 1220.26 21.8871 1220.91 20.5564C1221.55 19.2258 1222.56 18.1037 1223.81 17.3185C1225.07 16.5334 1226.52 16.117 1228 16.117C1229.47 16.117 1230.92 16.5334 1232.18 17.3185C1233.43 18.1037 1234.44 19.2258 1235.08 20.5564C1235.73 21.8871 1235.98 23.3725 1235.82 24.8427C1235.66 26.3129 1235.09 27.7083 1234.18 28.8694H1234.19Z" fill="black"/>
</svg>
