<svg width="98" height="23" viewBox="0 0 98 23" fill="none" xmlns="http://www.w3.org/2000/svg">
<path d="M11.2895 0L14.4879 6.8872L22.0264 7.80085L16.4647 12.971L17.9253 20.4229L11.2895 16.731L4.6537 20.4229L6.11428 12.971L0.552547 7.80085L8.09104 6.8872L11.2895 0Z" fill="#FFC633"/>
<path d="M40.3552 0L43.5537 6.8872L51.0922 7.80085L45.5304 12.971L46.991 20.4229L40.3552 16.731L33.7194 20.4229L35.18 12.971L29.6183 7.80085L37.1568 6.8872L40.3552 0Z" fill="#FFC633"/>
<path d="M69.421 0L72.6195 6.8872L80.158 7.80085L74.5962 12.971L76.0568 20.4229L69.421 16.731L62.7852 20.4229L64.2458 12.971L58.6841 7.80085L66.2226 6.8872L69.421 0Z" fill="#FFC633"/>
<path d="M91.2984 20.4229L97.9342 16.731V0L94.7358 6.8872L87.1973 7.80085L92.759 12.971L91.2984 20.4229Z" fill="#FFC633"/>
</svg>
